<svg width="587" height="828" viewBox="0 0 587 828" fill="none" xmlns="http://www.w3.org/2000/svg">
<path fill-rule="evenodd" clip-rule="evenodd" d="M135.141 441.997L135.141 441.995C135.228 442.012 135.316 442.03 135.404 442.046C135.442 442.054 135.479 442.062 135.517 442.068L135.517 442.07C160.318 447.099 182.685 472.461 156.944 545.908C131.088 619.682 120.548 626.222 100.178 622.965L100.178 622.968C100.169 622.965 100.159 622.963 100.15 622.961C100.147 622.96 100.144 622.96 100.141 622.96L100.141 622.959C80.0342 618.347 72.7117 608.335 76.3748 530.248C80.022 452.506 110.261 437.371 135.141 441.997Z" fill="url(#paint0_linear_1712_182)"/>
<path d="M345.572 660.989C345.572 690.732 321.46 714.844 291.717 714.844C261.973 714.844 237.861 690.732 237.861 660.989C237.861 612.262 261.973 607.133 291.717 607.133C321.46 607.133 345.572 612.262 345.572 660.989Z" fill="url(#paint1_linear_1712_182)"/>
<path d="M323.133 649.769C323.133 668.359 309.068 683.429 291.717 683.429C274.367 683.429 260.302 668.359 260.302 649.769C260.302 619.315 274.367 616.109 291.717 616.109C309.068 616.109 323.133 619.315 323.133 649.769Z" fill="#3A62D7"/>
<path d="M388.209 537.57C388.209 602.645 345.573 647.525 291.717 647.525C237.862 647.525 192.982 602.645 192.982 537.57C192.982 454.543 248.341 450.055 291.717 450.055C335.093 450.055 388.209 454.543 388.209 537.57Z" fill="url(#paint2_linear_1712_182)"/>
<path d="M388.209 537.57C388.209 602.645 345.573 647.525 291.717 647.525C237.862 647.525 192.982 602.645 192.982 537.57C192.982 454.543 248.341 450.055 291.717 450.055C335.093 450.055 388.209 454.543 388.209 537.57Z" fill="url(#paint3_linear_1712_182)"/>
<path d="M289.473 827.044C392.336 827.044 475.723 810.969 475.723 791.14C475.723 771.311 392.336 755.236 289.473 755.236C186.61 755.236 103.223 771.311 103.223 791.14C103.223 810.969 186.61 827.044 289.473 827.044Z" fill="#020305"/>
<path d="M393.344 100.802C402.401 104.834 411.378 104.432 413.394 99.9035C415.411 95.3749 409.703 88.4346 400.645 84.402C391.588 80.3694 382.611 80.7716 380.595 85.3002C378.578 89.8289 384.286 96.7692 393.344 100.802Z" fill="#07203E"/>
<path fill-rule="evenodd" clip-rule="evenodd" d="M421.676 501.367L421.675 501.369C421.596 501.283 421.519 501.196 421.442 501.109C421.434 501.1 421.424 501.09 421.415 501.079C404.49 481.971 401.868 447.96 467.193 404.417C532.808 360.681 545.271 361.81 559.704 376.798L559.707 376.796C559.715 376.807 559.723 376.816 559.732 376.826M421.676 501.367C438.911 520.198 472.461 526.36 522.594 465.944C572.95 405.26 573.13 392.747 559.732 376.826" fill="url(#paint4_linear_1712_182)"/>
<g filter="url(#filter0_d_1712_182)">
<path d="M329.864 517.374C336.061 517.374 341.084 512.351 341.084 506.154C341.084 499.957 336.061 494.934 329.864 494.934C323.667 494.934 318.644 499.957 318.644 506.154C318.644 512.351 323.667 517.374 329.864 517.374Z" fill="#151F2A" fill-opacity="0.8" shape-rendering="crispEdges"/>
</g>
<path d="M536.252 234.894C536.252 364.145 423.564 425.368 284.555 425.368C145.546 425.368 46.4619 364.145 46.4619 234.894C46.4619 164.6 145.546 33.0823 284.555 33.0823C423.564 33.0823 536.252 164.6 536.252 234.894Z" fill="url(#paint5_linear_1712_182)"/>
<path d="M461.424 277.978C461.424 343.099 434.214 346.004 282.288 346.004C146.236 346.004 119.025 343.099 119.025 277.978C119.025 212.856 183.354 112.446 282.288 112.446C381.223 112.446 461.424 212.856 461.424 277.978Z" fill="#151F2A"/>
<path d="M196.122 287.048C211.15 287.048 223.333 265.728 223.333 239.429C223.333 213.13 211.15 191.811 196.122 191.811C181.094 191.811 168.912 213.13 168.912 239.429C168.912 265.728 181.094 287.048 196.122 287.048Z" fill="#98D7F6"/>
<path d="M372.991 287.048C388.019 287.048 400.202 265.728 400.202 239.429C400.202 213.13 388.019 191.811 372.991 191.811C357.963 191.811 345.781 213.13 345.781 239.429C345.781 265.728 357.963 287.048 372.991 287.048Z" fill="#98D7F6"/>
<path d="M322.07 280.246C327.651 280.246 332.292 284.83 330.995 290.259C329.159 297.939 325.231 305.034 319.555 310.71C311.476 318.789 300.517 323.328 289.091 323.328C277.665 323.328 266.706 318.789 258.627 310.71C252.951 305.034 249.023 297.939 247.187 290.259C245.891 284.83 250.532 280.246 256.113 280.246H289.091H322.07Z" fill="#98D7F6"/>
<path d="M65.0492 195.409C67.5464 189.029 63.3679 181.813 56.6145 182.965C48.9092 184.279 41.5732 187.482 35.3019 192.382C25.3499 200.158 18.8943 211.568 17.3551 224.103C15.816 236.638 19.3195 249.272 27.0949 259.223C32.0178 265.525 38.3981 270.424 45.5983 273.561C51.849 276.285 57.6413 270.347 56.8195 263.578C55.5082 252.779 54.3068 237.661 55.9189 226.335C57.3056 216.594 61.5188 204.427 65.0492 195.409Z" fill="#151F2A"/>
<path d="M394.054 97.3894C403.206 101.464 412.277 101.058 414.315 96.4817C416.352 91.9055 410.584 84.8923 401.432 80.8173C392.279 76.7424 383.208 77.1487 381.171 81.725C379.133 86.3013 384.901 93.3144 394.054 97.3894Z" fill="#07203E"/>
<path d="M401.663 84.0893L465.291 6" stroke="url(#paint6_linear_1712_182)" stroke-width="12" stroke-linecap="round"/>
<path d="M518.952 196.775C516.455 190.395 520.633 183.18 527.386 184.332C535.091 185.645 542.428 188.849 548.699 193.749C558.651 201.523 565.106 212.934 566.645 225.469C568.184 238.005 564.681 250.637 556.906 260.589C551.983 266.891 545.603 271.79 538.403 274.927C532.152 277.651 526.36 271.713 527.181 264.945C528.493 254.145 529.694 239.026 528.082 227.701C526.695 217.96 522.482 205.794 518.952 196.775Z" fill="#151F2A"/>
<defs>
<filter id="filter0_d_1712_182" x="311.644" y="487.934" width="40.4399" height="40.4397" filterUnits="userSpaceOnUse" color-interpolation-filters="sRGB">
<feFlood flood-opacity="0" result="BackgroundImageFix"/>
<feColorMatrix in="SourceAlpha" type="matrix" values="0 0 0 0 0 0 0 0 0 0 0 0 0 0 0 0 0 0 127 0" result="hardAlpha"/>
<feOffset dx="2" dy="2"/>
<feGaussianBlur stdDeviation="4.5"/>
<feComposite in2="hardAlpha" operator="out"/>
<feColorMatrix type="matrix" values="0 0 0 0 0 0 0 0 0 0 0 0 0 0 0 0 0 0 0.2 0"/>
<feBlend mode="normal" in2="BackgroundImageFix" result="effect1_dropShadow_1712_182"/>
<feBlend mode="normal" in="SourceGraphic" in2="effect1_dropShadow_1712_182" result="shape"/>
</filter>
<linearGradient id="paint0_linear_1712_182" x1="-2.92993" y1="529.872" x2="63.7726" y2="433.704" gradientUnits="userSpaceOnUse">
<stop stop-color="#3D3EC2"/>
<stop offset="1" stop-color="#8787FF"/>
</linearGradient>
<linearGradient id="paint1_linear_1712_182" x1="257.5" y1="636" x2="313.353" y2="629.819" gradientUnits="userSpaceOnUse">
<stop stop-color="#3D3EC2"/>
<stop offset="1" stop-color="#8787FF"/>
</linearGradient>
<linearGradient id="paint2_linear_1712_182" x1="215" y1="549" x2="385.965" y2="548.79" gradientUnits="userSpaceOnUse">
<stop stop-color="#6141D6"/>
<stop offset="0.60496" stop-color="#42C0FF"/>
</linearGradient>
<linearGradient id="paint3_linear_1712_182" x1="180.292" y1="436.923" x2="320.832" y2="406.217" gradientUnits="userSpaceOnUse">
<stop stop-color="#3D3EC2"/>
<stop offset="1" stop-color="#8787FF"/>
</linearGradient>
<linearGradient id="paint4_linear_1712_182" x1="393.976" y1="515.761" x2="385.218" y2="398.027" gradientUnits="userSpaceOnUse">
<stop stop-color="#3D3EC2"/>
<stop offset="1" stop-color="#8787FF"/>
</linearGradient>
<linearGradient id="paint5_linear_1712_182" x1="14.6252" y1="6.99431" x2="340.606" y2="-106.571" gradientUnits="userSpaceOnUse">
<stop stop-color="#3D3EC2"/>
<stop offset="1" stop-color="#8787FF"/>
</linearGradient>
<linearGradient id="paint6_linear_1712_182" x1="366.484" y1="116.042" x2="342.552" y2="51.3772" gradientUnits="userSpaceOnUse">
<stop stop-color="#3D3EC2"/>
<stop offset="1" stop-color="#8787FF"/>
</linearGradient>
</defs>
</svg>
